<?xml version="1.0" encoding="UTF-8"?>
<svg xmlns="http://www.w3.org/2000/svg" xmlns:xlink="http://www.w3.org/1999/xlink" width="120px" height="68px" viewBox="0 0 120 68" version="1.1">
<g id="surface1">
<path style=" stroke:none;fill-rule:nonzero;fill:rgb(99.607843%,99.607843%,99.607843%);fill-opacity:1;" d="M 0 0 C 39.601562 0 79.199219 0 120 0 C 120 22.441406 120 44.878906 120 68 C 80.398438 68 40.800781 68 0 68 C 0 45.558594 0 23.121094 0 0 Z M 0 0 "/>
<path style=" stroke:none;fill-rule:nonzero;fill:rgb(9.411765%,12.941177%,16.470589%);fill-opacity:1;" d="M 51.5 35.761719 C 54.285156 35.761719 57.070312 35.761719 59.9375 35.761719 C 59.890625 35.992188 59.863281 36.125 59.765625 36.324219 C 59.734375 36.390625 59.734375 36.390625 59.699219 36.460938 C 59.660156 36.535156 59.660156 36.535156 59.625 36.609375 C 59.597656 36.664062 59.574219 36.714844 59.546875 36.769531 C 59.492188 36.878906 59.4375 36.992188 59.382812 37.105469 C 59.238281 37.398438 59.09375 37.695312 58.949219 37.988281 C 58.921875 38.046875 58.890625 38.105469 58.863281 38.167969 C 58.644531 38.617188 58.429688 39.074219 58.222656 39.53125 C 57.878906 40.285156 57.519531 41.03125 57.15625 41.777344 C 56.75 42.605469 56.351562 43.4375 55.96875 44.277344 C 55.65625 44.96875 55.328125 45.652344 55 46.339844 C 52.214844 46.339844 49.429688 46.339844 46.5625 46.339844 C 46.6875 45.960938 46.8125 45.625 46.984375 45.269531 C 47.007812 45.226562 47.03125 45.179688 47.054688 45.132812 C 47.101562 45.035156 47.148438 44.933594 47.199219 44.835938 C 47.328125 44.574219 47.453125 44.3125 47.582031 44.050781 C 47.621094 43.972656 47.621094 43.972656 47.660156 43.890625 C 47.867188 43.460938 48.070312 43.023438 48.269531 42.585938 C 48.617188 41.820312 48.984375 41.066406 49.351562 40.308594 C 49.394531 40.21875 49.394531 40.21875 49.4375 40.128906 C 49.550781 39.898438 49.664062 39.667969 49.777344 39.433594 C 50.367188 38.21875 50.933594 36.992188 51.5 35.761719 Z M 51.5 35.761719 "/>
<path style=" stroke:none;fill-rule:nonzero;fill:rgb(9.411765%,12.941177%,16.470589%);fill-opacity:1;" d="M 60.0625 35.761719 C 62.847656 35.761719 65.632812 35.761719 68.5 35.761719 C 68.769531 36.34375 69.035156 36.925781 69.3125 37.527344 C 69.496094 37.910156 69.679688 38.296875 69.867188 38.679688 C 70.003906 38.957031 70.136719 39.230469 70.273438 39.507812 C 70.296875 39.558594 70.320312 39.613281 70.351562 39.667969 C 70.730469 40.453125 71.105469 41.242188 71.472656 42.035156 C 71.535156 42.167969 71.597656 42.300781 71.660156 42.433594 C 71.703125 42.523438 71.742188 42.613281 71.785156 42.707031 C 72.039062 43.253906 72.296875 43.796875 72.5625 44.339844 C 72.601562 44.421875 72.601562 44.421875 72.640625 44.503906 C 72.765625 44.761719 72.890625 45.019531 73.019531 45.277344 C 73.066406 45.371094 73.113281 45.46875 73.15625 45.5625 C 73.179688 45.601562 73.199219 45.644531 73.222656 45.691406 C 73.332031 45.914062 73.386719 46.089844 73.4375 46.339844 C 70.652344 46.339844 67.867188 46.339844 65 46.339844 C 64.503906 45.28125 64.503906 45.28125 64 44.199219 C 63.757812 43.699219 63.757812 43.699219 63.515625 43.199219 C 63.1875 42.519531 62.859375 41.835938 62.546875 41.144531 C 62.195312 40.378906 61.828125 39.617188 61.460938 38.859375 C 61.417969 38.769531 61.417969 38.769531 61.375 38.683594 C 61.261719 38.453125 61.152344 38.222656 61.039062 37.992188 C 60.820312 37.546875 60.605469 37.101562 60.390625 36.652344 C 60.363281 36.597656 60.335938 36.539062 60.308594 36.484375 C 60.285156 36.433594 60.257812 36.382812 60.234375 36.328125 C 60.214844 36.289062 60.195312 36.246094 60.175781 36.203125 C 60.125 36.078125 60.125 36.078125 60.0625 35.761719 Z M 60.0625 35.761719 "/>
<path style=" stroke:none;fill-rule:nonzero;fill:rgb(9.411765%,12.941177%,16.470589%);fill-opacity:1;" d="M 59.9375 21.660156 C 59.976562 21.660156 60.019531 21.660156 60.0625 21.660156 C 60.132812 21.75 60.132812 21.75 60.207031 21.882812 C 60.25 21.957031 60.25 21.957031 60.296875 22.03125 C 60.328125 22.089844 60.359375 22.140625 60.390625 22.199219 C 60.460938 22.316406 60.527344 22.433594 60.59375 22.546875 C 60.632812 22.609375 60.667969 22.671875 60.703125 22.734375 C 60.875 23.027344 61.054688 23.320312 61.230469 23.609375 C 61.304688 23.734375 61.378906 23.855469 61.453125 23.976562 C 61.492188 24.042969 61.53125 24.105469 61.570312 24.167969 C 61.78125 24.523438 61.992188 24.875 62.207031 25.226562 C 62.25 25.304688 62.296875 25.378906 62.34375 25.453125 C 62.433594 25.601562 62.523438 25.753906 62.613281 25.90625 C 62.75 26.125 62.882812 26.347656 63.015625 26.570312 C 63.039062 26.609375 63.0625 26.644531 63.082031 26.679688 C 63.195312 26.863281 63.304688 27.046875 63.414062 27.230469 C 63.617188 27.566406 63.816406 27.898438 64.019531 28.234375 C 64.109375 28.386719 64.199219 28.539062 64.292969 28.691406 C 64.335938 28.765625 64.382812 28.839844 64.425781 28.914062 C 64.65625 29.292969 64.886719 29.675781 65.121094 30.054688 C 65.160156 30.117188 65.199219 30.179688 65.238281 30.242188 C 65.308594 30.355469 65.382812 30.472656 65.453125 30.585938 C 65.484375 30.636719 65.515625 30.6875 65.546875 30.738281 C 65.585938 30.804688 65.585938 30.804688 65.628906 30.871094 C 65.6875 30.976562 65.6875 30.976562 65.6875 31.105469 C 61.933594 31.105469 58.179688 31.105469 54.3125 31.105469 C 54.410156 30.855469 54.507812 30.660156 54.644531 30.433594 C 54.6875 30.363281 54.726562 30.296875 54.773438 30.222656 C 54.820312 30.148438 54.863281 30.074219 54.910156 29.996094 C 54.957031 29.917969 55.007812 29.839844 55.054688 29.761719 C 55.152344 29.597656 55.253906 29.433594 55.351562 29.269531 C 55.558594 28.929688 55.761719 28.59375 55.964844 28.253906 C 56.078125 28.070312 56.1875 27.886719 56.296875 27.703125 C 56.339844 27.628906 56.386719 27.558594 56.429688 27.484375 C 57.09375 26.382812 57.09375 26.382812 57.757812 25.28125 C 57.78125 25.242188 57.800781 25.207031 57.824219 25.167969 C 57.867188 25.09375 57.914062 25.023438 57.957031 24.949219 C 58.066406 24.765625 58.175781 24.585938 58.289062 24.402344 C 58.492188 24.058594 58.703125 23.714844 58.910156 23.367188 C 59.007812 23.207031 59.105469 23.042969 59.203125 22.882812 C 59.25 22.804688 59.296875 22.726562 59.34375 22.648438 C 59.40625 22.542969 59.472656 22.433594 59.539062 22.328125 C 59.574219 22.265625 59.609375 22.207031 59.648438 22.144531 C 59.71875 22.027344 59.785156 21.910156 59.851562 21.792969 C 59.878906 21.75 59.90625 21.707031 59.9375 21.660156 Z M 59.9375 21.660156 "/>
<path style=" stroke:none;fill-rule:nonzero;fill:rgb(10.980392%,29.411766%,61.176473%);fill-opacity:1;" d="M 59.9375 39.539062 C 59.976562 39.539062 60.019531 39.539062 60.0625 39.539062 C 60.085938 39.589844 60.109375 39.640625 60.136719 39.691406 C 60.371094 40.160156 60.601562 40.632812 60.835938 41.105469 C 60.957031 41.347656 61.078125 41.589844 61.195312 41.832031 C 61.6875 42.820312 62.175781 43.804688 62.691406 44.78125 C 62.832031 45.046875 62.96875 45.320312 63.101562 45.59375 C 63.140625 45.675781 63.140625 45.675781 63.183594 45.757812 C 63.375 46.144531 63.375 46.144531 63.375 46.214844 C 61.148438 46.214844 58.921875 46.214844 56.625 46.214844 C 57.28125 44.824219 57.28125 44.824219 57.527344 44.324219 C 57.554688 44.277344 57.578125 44.222656 57.601562 44.171875 C 57.757812 43.859375 57.921875 43.546875 58.085938 43.234375 C 58.488281 42.46875 58.875 41.691406 59.257812 40.914062 C 59.324219 40.78125 59.390625 40.644531 59.457031 40.511719 C 59.617188 40.1875 59.777344 39.863281 59.9375 39.539062 Z M 59.9375 39.539062 "/>
<path style=" stroke:none;fill-rule:nonzero;fill:rgb(14.901961%,18.039216%,21.568628%);fill-opacity:1;" d="M 67.1875 31.859375 C 67.332031 31.859375 67.476562 31.859375 67.625 31.859375 C 67.644531 32.234375 67.664062 32.605469 67.6875 32.992188 C 67.875 32.835938 67.875 32.835938 68.0625 32.679688 C 68.390625 32.613281 68.710938 32.644531 69.027344 32.75 C 69.3125 32.957031 69.539062 33.210938 69.625 33.558594 C 69.671875 33.992188 69.632812 34.335938 69.375 34.691406 C 69.117188 34.972656 68.851562 35.113281 68.480469 35.15625 C 68.195312 35.128906 67.894531 35.027344 67.6875 34.820312 C 67.667969 34.902344 67.648438 34.984375 67.625 35.070312 C 67.480469 35.070312 67.335938 35.070312 67.1875 35.070312 C 67.1875 34.011719 67.1875 32.953125 67.1875 31.859375 Z M 67.1875 31.859375 "/>
<path style=" stroke:none;fill-rule:nonzero;fill:rgb(14.117648%,17.254902%,20.784314%);fill-opacity:1;" d="M 59.875 31.859375 C 60.019531 31.859375 60.164062 31.859375 60.3125 31.859375 C 60.3125 32.917969 60.3125 33.976562 60.3125 35.070312 C 60.167969 35.070312 60.023438 35.070312 59.875 35.070312 C 59.84375 34.914062 59.84375 34.914062 59.8125 34.753906 C 59.773438 34.796875 59.738281 34.835938 59.699219 34.878906 C 59.441406 35.125 59.148438 35.089844 58.808594 35.089844 C 58.484375 35.054688 58.324219 34.898438 58.109375 34.664062 C 57.867188 34.308594 57.824219 33.984375 57.875 33.558594 C 57.988281 33.183594 58.1875 32.964844 58.5 32.742188 C 58.761719 32.609375 59.089844 32.648438 59.375 32.679688 C 59.554688 32.75 59.675781 32.855469 59.8125 32.992188 C 59.832031 32.617188 59.851562 32.246094 59.875 31.859375 Z M 59.875 31.859375 "/>
<path style=" stroke:none;fill-rule:nonzero;fill:rgb(14.117648%,17.647059%,20.784314%);fill-opacity:1;" d="M 65.625 32.679688 C 65.804688 32.75 65.925781 32.855469 66.0625 32.992188 C 66.082031 32.886719 66.101562 32.785156 66.125 32.679688 C 66.269531 32.679688 66.414062 32.679688 66.5625 32.679688 C 66.5625 33.46875 66.5625 34.257812 66.5625 35.070312 C 66.417969 35.070312 66.273438 35.070312 66.125 35.070312 C 66.09375 34.914062 66.09375 34.914062 66.0625 34.753906 C 66.011719 34.8125 66.011719 34.8125 65.960938 34.875 C 65.734375 35.078125 65.523438 35.125 65.222656 35.15625 C 64.863281 35.117188 64.621094 34.964844 64.386719 34.695312 C 64.125 34.324219 64.070312 34.011719 64.125 33.558594 C 64.238281 33.183594 64.4375 32.964844 64.75 32.742188 C 65.011719 32.609375 65.339844 32.648438 65.625 32.679688 Z M 65.625 32.679688 "/>
<path style=" stroke:none;fill-rule:nonzero;fill:rgb(12.941177%,16.470589%,19.607843%);fill-opacity:1;" d="M 46.125 32.046875 C 46.289062 32.046875 46.453125 32.046875 46.625 32.046875 C 46.777344 32.46875 46.929688 32.886719 47.078125 33.308594 C 47.132812 33.453125 47.179688 33.59375 47.234375 33.738281 C 47.308594 33.945312 47.382812 34.148438 47.453125 34.355469 C 47.476562 34.417969 47.5 34.484375 47.523438 34.550781 C 47.546875 34.609375 47.570312 34.667969 47.589844 34.730469 C 47.609375 34.78125 47.628906 34.832031 47.648438 34.886719 C 47.6875 35.007812 47.6875 35.007812 47.6875 35.070312 C 47.542969 35.070312 47.398438 35.070312 47.25 35.070312 C 47.167969 34.863281 47.085938 34.65625 47 34.441406 C 46.566406 34.421875 46.132812 34.398438 45.6875 34.378906 C 45.625 34.605469 45.5625 34.835938 45.5 35.070312 C 45.355469 35.070312 45.210938 35.070312 45.0625 35.070312 C 45.210938 34.441406 45.4375 33.84375 45.664062 33.242188 C 45.703125 33.136719 45.738281 33.035156 45.777344 32.933594 C 45.8125 32.839844 45.851562 32.742188 45.882812 32.644531 C 45.910156 32.578125 45.910156 32.578125 45.9375 32.507812 C 46.054688 32.1875 46.054688 32.1875 46.125 32.046875 Z M 46.125 32.046875 "/>
<path style=" stroke:none;fill-rule:nonzero;fill:rgb(12.941177%,16.470589%,19.607843%);fill-opacity:1;" d="M 56.96875 32.75 C 57.195312 32.917969 57.371094 33.113281 57.5 33.371094 C 57.5 33.578125 57.5 33.785156 57.5 34 C 56.882812 34 56.261719 34 55.625 34 C 55.804688 34.542969 55.804688 34.542969 56.0625 34.691406 C 56.273438 34.726562 56.476562 34.726562 56.6875 34.691406 C 56.882812 34.550781 56.882812 34.550781 57 34.378906 C 57.0625 34.316406 57.0625 34.316406 57.253906 34.3125 C 57.34375 34.3125 57.34375 34.3125 57.4375 34.316406 C 57.433594 34.496094 57.402344 34.601562 57.277344 34.730469 C 56.894531 35.0625 56.660156 35.09375 56.152344 35.089844 C 55.882812 35.066406 55.75 35.007812 55.5625 34.820312 C 55.214844 34.355469 55.203125 33.9375 55.25 33.371094 C 55.578125 32.660156 56.265625 32.519531 56.96875 32.75 Z M 56.96875 32.75 "/>
<path style=" stroke:none;fill-rule:nonzero;fill:rgb(11.372549%,14.901961%,18.431373%);fill-opacity:1;" d="M 50.9375 32.679688 C 51.0625 32.679688 51.183594 32.679688 51.3125 32.679688 C 51.332031 32.761719 51.351562 32.84375 51.375 32.929688 C 51.410156 32.886719 51.445312 32.847656 51.484375 32.804688 C 51.792969 32.613281 52.085938 32.628906 52.4375 32.679688 C 52.644531 32.761719 52.78125 32.898438 52.9375 33.054688 C 52.960938 33.027344 52.984375 33 53.007812 32.972656 C 53.242188 32.730469 53.414062 32.648438 53.753906 32.636719 C 54.070312 32.65625 54.265625 32.707031 54.5 32.929688 C 54.6875 33.183594 54.710938 33.363281 54.707031 33.675781 C 54.703125 33.796875 54.703125 33.796875 54.703125 33.921875 C 54.703125 34.007812 54.703125 34.089844 54.699219 34.175781 C 54.699219 34.261719 54.695312 34.351562 54.695312 34.4375 C 54.695312 34.648438 54.691406 34.859375 54.6875 35.070312 C 54.5625 35.070312 54.441406 35.070312 54.3125 35.070312 C 54.3125 35.019531 54.3125 34.96875 54.308594 34.917969 C 54.304688 34.691406 54.296875 34.464844 54.292969 34.234375 C 54.289062 34.117188 54.289062 34.117188 54.289062 33.996094 C 54.285156 33.921875 54.285156 33.84375 54.28125 33.765625 C 54.28125 33.695312 54.277344 33.628906 54.277344 33.554688 C 54.246094 33.351562 54.203125 33.261719 54.0625 33.117188 C 53.835938 33.042969 53.675781 33.035156 53.4375 33.054688 C 53.265625 33.167969 53.15625 33.246094 53.0625 33.433594 C 53.054688 33.554688 53.046875 33.679688 53.042969 33.804688 C 53.039062 33.914062 53.039062 33.914062 53.035156 34.027344 C 53.03125 34.101562 53.03125 34.179688 53.027344 34.257812 C 53.023438 34.375 53.023438 34.375 53.019531 34.496094 C 53.011719 34.6875 53.007812 34.878906 53 35.070312 C 52.875 35.070312 52.753906 35.070312 52.625 35.070312 C 52.625 35.023438 52.621094 34.972656 52.621094 34.921875 C 52.617188 34.707031 52.609375 34.484375 52.601562 34.269531 C 52.601562 34.191406 52.597656 34.117188 52.59375 34.039062 C 52.59375 33.964844 52.589844 33.890625 52.585938 33.816406 C 52.585938 33.75 52.585938 33.679688 52.582031 33.613281 C 52.5625 33.4375 52.53125 33.328125 52.4375 33.179688 C 52.246094 33.035156 52.039062 33.03125 51.804688 33.035156 C 51.625 33.066406 51.546875 33.160156 51.4375 33.308594 C 51.351562 33.476562 51.359375 33.617188 51.355469 33.804688 C 51.351562 33.878906 51.351562 33.949219 51.347656 34.027344 C 51.34375 34.140625 51.34375 34.140625 51.339844 34.257812 C 51.335938 34.335938 51.335938 34.414062 51.332031 34.496094 C 51.324219 34.6875 51.320312 34.878906 51.3125 35.070312 C 51.1875 35.070312 51.066406 35.070312 50.9375 35.070312 C 50.9375 34.28125 50.9375 33.492188 50.9375 32.679688 Z M 50.9375 32.679688 "/>
<path style=" stroke:none;fill-rule:nonzero;fill:rgb(14.509805%,18.039216%,21.176471%);fill-opacity:1;" d="M 48.125 31.859375 C 48.269531 31.859375 48.414062 31.859375 48.5625 31.859375 C 48.582031 32.191406 48.601562 32.523438 48.625 32.867188 C 48.726562 32.804688 48.832031 32.742188 48.9375 32.679688 C 49.285156 32.625 49.59375 32.632812 49.910156 32.785156 C 50.125 32.988281 50.238281 33.144531 50.273438 33.449219 C 50.269531 33.558594 50.269531 33.558594 50.269531 33.675781 C 50.265625 33.796875 50.265625 33.796875 50.265625 33.921875 C 50.265625 34.007812 50.265625 34.089844 50.261719 34.175781 C 50.261719 34.261719 50.257812 34.351562 50.257812 34.4375 C 50.257812 34.648438 50.253906 34.859375 50.25 35.070312 C 50.125 35.070312 50.003906 35.070312 49.875 35.070312 C 49.875 35.023438 49.871094 34.976562 49.871094 34.929688 C 49.867188 34.722656 49.859375 34.511719 49.851562 34.304688 C 49.851562 34.230469 49.847656 34.160156 49.84375 34.082031 C 49.84375 34.015625 49.839844 33.945312 49.835938 33.871094 C 49.835938 33.773438 49.835938 33.773438 49.832031 33.675781 C 49.8125 33.488281 49.773438 33.351562 49.6875 33.179688 C 49.5 33.054688 49.441406 33.035156 49.226562 33.027344 C 49.179688 33.023438 49.132812 33.023438 49.085938 33.019531 C 48.917969 33.058594 48.804688 33.117188 48.6875 33.246094 C 48.539062 33.542969 48.578125 33.914062 48.574219 34.238281 C 48.570312 34.320312 48.570312 34.398438 48.570312 34.480469 C 48.566406 34.679688 48.5625 34.875 48.5625 35.070312 C 48.417969 35.070312 48.273438 35.070312 48.125 35.070312 C 48.125 34.011719 48.125 32.953125 48.125 31.859375 Z M 48.125 31.859375 "/>
<path style=" stroke:none;fill-rule:nonzero;fill:rgb(98.431373%,98.431373%,98.431373%);fill-opacity:1;" d="M 65.625 32.992188 C 65.835938 33.121094 66.015625 33.273438 66.125 33.496094 C 66.183594 34.210938 66.183594 34.210938 65.9375 34.503906 C 65.757812 34.71875 65.609375 34.75 65.328125 34.78125 C 65.046875 34.78125 64.910156 34.664062 64.710938 34.480469 C 64.515625 34.25 64.535156 33.960938 64.535156 33.671875 C 64.578125 33.394531 64.726562 33.230469 64.9375 33.054688 C 65.15625 32.945312 65.386719 32.949219 65.625 32.992188 Z M 65.625 32.992188 "/>
<path style=" stroke:none;fill-rule:nonzero;fill:rgb(98.431373%,98.431373%,98.431373%);fill-opacity:1;" d="M 59.375 32.992188 C 59.585938 33.121094 59.765625 33.273438 59.875 33.496094 C 59.933594 34.210938 59.933594 34.210938 59.6875 34.503906 C 59.507812 34.71875 59.359375 34.75 59.078125 34.78125 C 58.796875 34.78125 58.660156 34.664062 58.460938 34.480469 C 58.265625 34.25 58.285156 33.960938 58.285156 33.671875 C 58.328125 33.394531 58.476562 33.230469 58.6875 33.054688 C 58.90625 32.945312 59.136719 32.949219 59.375 32.992188 Z M 59.375 32.992188 "/>
<path style=" stroke:none;fill-rule:nonzero;fill:rgb(98.431373%,98.431373%,98.431373%);fill-opacity:1;" d="M 68.6875 32.992188 C 68.898438 33.121094 69.078125 33.273438 69.1875 33.496094 C 69.246094 34.210938 69.246094 34.210938 69 34.503906 C 68.820312 34.71875 68.671875 34.75 68.390625 34.78125 C 68.109375 34.78125 67.972656 34.664062 67.773438 34.480469 C 67.578125 34.25 67.597656 33.960938 67.597656 33.671875 C 67.640625 33.394531 67.789062 33.230469 68 33.054688 C 68.21875 32.945312 68.449219 32.949219 68.6875 32.992188 Z M 68.6875 32.992188 "/>
<path style=" stroke:none;fill-rule:nonzero;fill:rgb(13.333334%,16.470589%,20%);fill-opacity:1;" d="M 74.40625 32.75 C 74.605469 32.898438 74.730469 33.039062 74.875 33.246094 C 74.875 33.304688 74.875 33.371094 74.875 33.433594 C 74.730469 33.433594 74.585938 33.433594 74.4375 33.433594 C 74.421875 33.394531 74.40625 33.355469 74.390625 33.316406 C 74.296875 33.152344 74.234375 33.125 74.0625 33.054688 C 73.871094 33.023438 73.691406 33.019531 73.5 33.054688 C 73.328125 33.191406 73.222656 33.300781 73.125 33.496094 C 73.085938 33.898438 73.117188 34.214844 73.3125 34.566406 C 73.507812 34.699219 73.554688 34.710938 73.777344 34.707031 C 73.824219 34.707031 73.875 34.710938 73.921875 34.710938 C 74.078125 34.691406 74.179688 34.648438 74.3125 34.566406 C 74.390625 34.4375 74.390625 34.4375 74.4375 34.316406 C 74.582031 34.316406 74.726562 34.316406 74.875 34.316406 C 74.796875 34.660156 74.660156 34.804688 74.375 35.007812 C 74.117188 35.152344 73.851562 35.175781 73.5625 35.132812 C 73.226562 35.03125 72.953125 34.839844 72.753906 34.546875 C 72.601562 34.167969 72.625 33.765625 72.6875 33.371094 C 73 32.652344 73.710938 32.523438 74.40625 32.75 Z M 74.40625 32.75 "/>
<path style=" stroke:none;fill-rule:nonzero;fill:rgb(9.803922%,13.333334%,16.862746%);fill-opacity:1;" d="M 62.125 32.046875 C 62.679688 32.046875 63.238281 32.046875 63.8125 32.046875 C 63.8125 32.152344 63.8125 32.253906 63.8125 32.363281 C 63.378906 32.363281 62.945312 32.363281 62.5 32.363281 C 62.5 32.695312 62.5 33.027344 62.5 33.371094 C 62.851562 33.371094 63.203125 33.371094 63.5625 33.371094 C 63.5625 33.476562 63.5625 33.578125 63.5625 33.683594 C 63.210938 33.683594 62.859375 33.683594 62.5 33.683594 C 62.5 34.144531 62.5 34.597656 62.5 35.070312 C 62.375 35.070312 62.253906 35.070312 62.125 35.070312 C 62.125 34.074219 62.125 33.074219 62.125 32.046875 Z M 62.125 32.046875 "/>
<path style=" stroke:none;fill-rule:nonzero;fill:rgb(12.156863%,15.686275%,19.215687%);fill-opacity:1;" d="M 71.3125 32.613281 C 71.3125 32.761719 71.3125 32.90625 71.3125 33.054688 C 71.246094 33.058594 71.179688 33.066406 71.109375 33.070312 C 70.855469 33.121094 70.78125 33.167969 70.625 33.371094 C 70.542969 33.535156 70.546875 33.667969 70.542969 33.851562 C 70.539062 33.921875 70.539062 33.992188 70.535156 34.066406 C 70.53125 34.179688 70.53125 34.179688 70.527344 34.292969 C 70.523438 34.367188 70.523438 34.441406 70.519531 34.515625 C 70.511719 34.703125 70.507812 34.886719 70.5 35.070312 C 70.375 35.070312 70.253906 35.070312 70.125 35.070312 C 70.125 34.28125 70.125 33.492188 70.125 32.679688 C 70.25 32.679688 70.371094 32.679688 70.5 32.679688 C 70.519531 32.78125 70.539062 32.886719 70.5625 32.992188 C 70.609375 32.941406 70.65625 32.890625 70.707031 32.839844 C 70.921875 32.628906 71.011719 32.613281 71.3125 32.613281 Z M 71.3125 32.613281 "/>
<path style=" stroke:none;fill-rule:nonzero;fill:rgb(9.411765%,12.941177%,16.470589%);fill-opacity:1;" d="M 71.75 32.679688 C 71.875 32.679688 71.996094 32.679688 72.125 32.679688 C 72.125 33.46875 72.125 34.257812 72.125 35.070312 C 72 35.070312 71.878906 35.070312 71.75 35.070312 C 71.75 34.28125 71.75 33.492188 71.75 32.679688 Z M 71.75 32.679688 "/>
<path style=" stroke:none;fill-rule:nonzero;fill:rgb(96.078432%,96.078432%,96.078432%);fill-opacity:1;" d="M 46.3125 32.613281 C 46.460938 32.75 46.535156 32.859375 46.601562 33.050781 C 46.617188 33.097656 46.632812 33.144531 46.648438 33.191406 C 46.664062 33.242188 46.683594 33.289062 46.699219 33.339844 C 46.714844 33.386719 46.734375 33.4375 46.75 33.488281 C 46.875 33.847656 46.875 33.847656 46.875 34.0625 C 46.523438 34.0625 46.171875 34.0625 45.8125 34.0625 C 45.882812 33.84375 45.957031 33.628906 46.027344 33.410156 C 46.058594 33.316406 46.058594 33.316406 46.089844 33.222656 C 46.109375 33.164062 46.128906 33.105469 46.148438 33.042969 C 46.164062 32.988281 46.183594 32.933594 46.203125 32.875 C 46.25 32.742188 46.25 32.742188 46.3125 32.613281 Z M 46.3125 32.613281 "/>
<path style=" stroke:none;fill-rule:nonzero;fill:rgb(98.039216%,98.039216%,98.039216%);fill-opacity:1;" d="M 56.324219 32.972656 C 56.648438 32.976562 56.832031 33.074219 57.0625 33.308594 C 57.0625 33.433594 57.0625 33.554688 57.0625 33.683594 C 56.585938 33.683594 56.113281 33.683594 55.625 33.683594 C 55.691406 33.34375 55.753906 33.277344 56 33.054688 C 56.097656 32.957031 56.1875 32.976562 56.324219 32.972656 Z M 56.324219 32.972656 "/>
<path style=" stroke:none;fill-rule:nonzero;fill:rgb(16.470589%,19.607843%,22.745098%);fill-opacity:1;" d="M 71.8125 31.734375 C 72.097656 31.769531 72.097656 31.769531 72.1875 31.859375 C 72.199219 32.011719 72.199219 32.011719 72.1875 32.175781 C 72.148438 32.214844 72.105469 32.257812 72.0625 32.300781 C 71.777344 32.265625 71.777344 32.265625 71.6875 32.175781 C 71.675781 32.019531 71.675781 32.019531 71.6875 31.859375 C 71.726562 31.816406 71.769531 31.777344 71.8125 31.734375 Z M 71.8125 31.734375 "/>
</g>
</svg>
